<svg width="100" height="100" viewBox="0 0 100 100" fill="none" xmlns="http://www.w3.org/2000/svg">
<path d="M50 0C40.1109 0 30.444 2.93245 22.2215 8.42652C13.999 13.9206 7.59043 21.7295 3.80604 30.8658C0.0216641 40.0021 -0.968502 50.0554 0.960758 59.7545C2.89002 69.4535 7.65205 78.3627 14.6447 85.3553C21.6373 92.3479 30.5464 97.11 40.2455 99.0392C49.9445 100.968 59.9979 99.9783 69.1342 96.1939C78.2705 92.4096 86.0794 86.0009 91.5735 77.7785C97.0675 69.556 100 59.889 100 50C100 36.7392 94.7322 24.0215 85.3553 14.6447C75.9785 5.26784 63.2608 0 50 0ZM48 70.8333L29.9636 57.0773C27.2271 54.9902 26.7118 51.0747 28.8152 48.3507V48.3507C30.9165 45.6293 34.8299 45.1353 37.5416 47.2489L46.4167 54.1666L61.0569 37.6761C63.3478 35.0957 67.2988 34.8665 69.8727 37.1646V37.1646C72.4484 39.4644 72.6648 43.4194 70.3552 45.9864L61.2708 56.0833L48 70.8333Z" fill="#059212"/>
</svg>
