<svg width="100" height="100" viewBox="0 0 100 100" fill="none" xmlns="http://www.w3.org/2000/svg">
<path d="M99.3387 22.6228C98.457 19.9749 96.6936 18.2096 94.0485 15.5618L84.3498 5.85283C81.7046 3.20494 79.9412 1.43968 77.2961 0.557054C74.9449 -0.0313654 72.5937 -0.325575 70.2425 0.557054C67.5974 1.43968 65.8339 3.20494 63.1888 5.85283L1.76341 67.3427C0.587803 68.5195 0 69.9906 0 71.4616V94.1158C0 97.3521 2.64511 100 5.87803 100H28.5085C29.978 100 31.4475 99.4116 32.6231 98.2347L94.0485 36.7449C96.6936 34.097 98.457 32.3317 99.3387 29.6838C100.22 27.3302 100.22 24.9765 99.3387 22.6228ZM26.1572 88.2316H11.7561V73.8153L51.1389 34.3912L65.54 48.8075L26.1572 88.2316ZM85.8193 28.2128C85.8193 28.507 85.8193 28.507 85.8193 28.2128L73.7693 40.2754L59.3681 25.8591L71.4181 13.7965C72.2998 12.9139 73.1815 12.0312 73.4754 11.737C74.0632 12.3255 74.9449 13.2081 75.8266 13.7965L85.8193 23.7996C86.701 24.6823 87.5827 25.5649 87.8766 26.1533C87.5827 26.7417 86.701 27.6244 85.8193 28.2128Z" fill="#333333"/>
</svg>
