<?xml version="1.0" encoding="utf-8"?>
<!-- Generator: Adobe Illustrator 26.1.0, SVG Export Plug-In . SVG Version: 6.00 Build 0)  -->
<svg version="1.1" id="Livello_1" xmlns="http://www.w3.org/2000/svg" xmlns:xlink="http://www.w3.org/1999/xlink" x="0px" y="0px"
	 viewBox="0 0 500 500" style="enable-background:new 0 0 500 500;" xml:space="preserve">
<g>
	<path style="fill:#0F0F00;" d="M466.7,266.7H300c-18.4,0-33.3,14.9-33.3,33.3v166.7c0,18.4,14.9,33.3,33.3,33.3h166.7
		c18.4,0,33.3-14.9,33.3-33.3V300C500,281.6,485.1,266.7,466.7,266.7z"/>
	<path style="fill:#0F0F00;" d="M308.4,233.3h149.7c37.2,0,55.8-45,29.5-71.3L338,12.3c-26.3-26.3-71.3-7.7-71.3,29.5v149.7
		C266.7,214.6,285.4,233.3,308.4,233.3z"/>
	<path style="fill:#0F0F00;" d="M162,12.3L12.3,162c-7.6,7.6-11.5,16.9-12.2,26.1L0,188.3v274.6C0,483.4,14.9,500,33.3,500H200
		c18.4,0,33.3-16.6,33.3-37.1V191.6V41.8v-4.6l-0.2,0.2C229.7,3.2,187.3-12.9,162,12.3z"/>
</g>
</svg>
