<?xml version="1.0" encoding="utf-8"?>
<!-- Generator: Adobe Illustrator 26.1.0, SVG Export Plug-In . SVG Version: 6.00 Build 0)  -->
<svg version="1.1" id="Livello_1" xmlns="http://www.w3.org/2000/svg" xmlns:xlink="http://www.w3.org/1999/xlink" x="0px" y="0px"
	 viewBox="0 0 100 100" style="enable-background:new 0 0 100 100;" xml:space="preserve">
<style type="text/css">
	.st0{fill:none;stroke:#0F0F00;stroke-width:7;stroke-linecap:round;stroke-linejoin:round;stroke-miterlimit:10;}
</style>
<g>
	<path class="st0" d="M87,56H62c-2.8,0-5,2.2-5,5v25c0,2.8,2.2,5,5,5h25c2.8,0,5-2.2,5-5V61C92,58.2,89.8,56,87,56z"/>
	<path class="st0" d="M63.3,44h22.5c5.6,0,8.4-6.7,4.4-10.7L67.7,10.8C63.8,6.9,57,9.7,57,15.3v22.5C57,41.2,59.8,44,63.3,44z"/>
	<path class="st0" d="M32.3,10.8L9.8,33.3c-1.1,1.1-1.7,2.5-1.8,3.9l0,0v47.9c0,3.1,2.2,5.6,5,5.6h25c2.8,0,5-2.5,5-5.6V37.7V15.3
		v-0.7l0,0C42.5,9.5,36.1,7.1,32.3,10.8z"/>
</g>
</svg>
