<?xml version="1.0" encoding="utf-8"?>
<!-- Generator: Adobe Illustrator 26.1.0, SVG Export Plug-In . SVG Version: 6.00 Build 0)  -->
<svg version="1.1" id="Livello_1" xmlns="http://www.w3.org/2000/svg" xmlns:xlink="http://www.w3.org/1999/xlink" x="0px" y="0px"
	 viewBox="0 0 500 500" style="enable-background:new 0 0 500 500;" xml:space="preserve">
<style type="text/css">
	.st0{fill:#F0F3FF;}
</style>
<g>
	<path class="st0" d="M238.2,30.1v439.4c0,8-2.9,15.5-8.1,21.2s-12.1,8.8-19.5,8.8h-183c-7.4,0-14.3-3.1-19.5-8.8
		C2.9,485,0,477.5,0,469.5V204c0-4.7,1-9.3,3.1-13.7c1.9-4.1,4.8-7.8,8.3-10.6l182.8-174c4-3.4,9-5.2,14-5.7s10.2,0.8,14.8,3.1
		c4.5,2.6,8.3,6.5,10.9,11.1C236.8,19.2,238.2,24.7,238.2,30.1z"/>
	<path class="st0" d="M500,185.4c0,8-2.9,15.5-8.1,21.2s-12.1,8.8-19.5,8.8H313.2c-7.4,0-14.3-3.1-19.5-8.8s-8.1-13.2-8.1-21.2v-155
		c0-5.4,1.4-10.9,4-15.8c2.6-4.7,6.4-8.5,10.9-11.1s9.5-3.6,14.8-3.1c5,0.5,10,2.3,14,5.7l159,155.3c3.6,2.8,6.4,6.5,8.3,10.6
		C499,176.1,500,180.8,500,185.4z"/>
	<path class="st0" d="M472.4,267.1h-159c-15.2,0-27.6,13.4-27.6,30V470c0,16.5,12.4,30,27.6,30h159c15.2,0,27.6-13.4,27.6-30V297.4
		C500,280.6,487.6,267.1,472.4,267.1z"/>
</g>
</svg>
