<?xml version="1.0" encoding="utf-8"?>
<!-- Generator: Adobe Illustrator 26.1.0, SVG Export Plug-In . SVG Version: 6.00 Build 0)  -->
<svg version="1.1" id="Livello_1" xmlns="http://www.w3.org/2000/svg" xmlns:xlink="http://www.w3.org/1999/xlink" x="0px" y="0px"
	 viewBox="0 0 91 100" style="enable-background:new 0 0 91 100;" xml:space="preserve">
<style type="text/css">
	.st0{fill:none;stroke:#000000;stroke-width:7;stroke-linecap:round;stroke-linejoin:round;stroke-miterlimit:10;}
</style>
<g>
	<g>
		<path class="st0" d="M77.5,80.8h-6.4c-3.1,0-5.6-2.5-5.6-5.6V12.9c0-3.1,2.5-5.6,5.6-5.6h6.4c3.1,0,5.6,2.5,5.6,5.6v62.3
			C83.2,78.3,80.6,80.8,77.5,80.8z"/>
		<path class="st0" d="M48.7,80.8h-6.4c-3.1,0-5.6-2.5-5.6-5.6V26.6c0-3.1,2.5-5.6,5.6-5.6h6.4c3.1,0,5.6,2.5,5.6,5.6v48.5
			C54.4,78.2,51.8,80.8,48.7,80.8z"/>
		<path class="st0" d="M19.9,82.6h-6.4c-3.1,0-5.6-2.5-5.6-5.6V42.2c0-3.1,2.5-5.6,5.6-5.6h6.4c3.1,0,5.6,2.5,5.6,5.6v34.7
			C25.5,80,23,82.6,19.9,82.6z"/>
	</g>
	<line class="st0" x1="7.9" y1="93.9" x2="83.1" y2="93.9"/>
</g>
</svg>
