<svg width="110" height="110" viewBox="0 0 110 110" fill="none" xmlns="http://www.w3.org/2000/svg">
<path d="M5 5L105 105M97.3606 66.2411C98.6833 62.68 99.4444 58.9256 99.4444 55V33.9867C99.4444 29.5449 99.4444 27.3241 98.7178 25.415C98.0761 23.7286 97.0333 22.2238 95.6794 21.0307C94.1472 19.6802 92.0678 18.9004 87.9089 17.3408L58.1211 6.17039C56.9661 5.73728 56.3889 5.52072 55.7944 5.43489C55.2678 5.35872 54.7322 5.35872 54.2056 5.43489C53.6111 5.52072 53.0339 5.73728 51.8789 6.17039L41.2583 10.1531M84.6928 84.6928C75.4306 93.8339 64.2089 100.296 58.5828 103.229C57.43 103.83 56.8533 104.13 56.0617 104.284C55.4456 104.404 54.5561 104.404 53.9394 104.284C53.1483 104.131 52.5778 103.833 51.4367 103.239C40.8887 97.7428 10.5556 79.7839 10.5556 55V33.9867C10.5556 29.5449 10.5556 27.3241 11.282 25.415C11.9237 23.7286 12.9666 22.2238 14.3203 21.0307C15.3583 20.1159 16.6474 19.463 18.6637 18.6522" stroke="black" stroke-width="10" stroke-linecap="round" stroke-linejoin="round"/>
</svg>
