<svg width="100" height="110" viewBox="0 0 100 110" fill="none" xmlns="http://www.w3.org/2000/svg">
<path d="M46.2955 103.853C47.4476 104.453 48.0239 104.754 48.8231 104.909C49.446 105.03 50.3439 105.03 50.9668 104.909C51.7659 104.754 52.3423 104.453 53.4944 103.853C64.1491 98.3017 94.7899 80.1602 94.7899 55.1251V33.8989C94.7899 29.4121 94.7899 27.1688 94.0558 25.2403C93.4077 23.5368 92.3543 22.0167 90.9867 20.8116C89.4389 19.4474 87.3384 18.6597 83.1374 17.0843L53.0477 5.80067C51.881 5.36317 51.2979 5.14442 50.6974 5.05766C50.1654 4.98078 49.6244 4.98078 49.0924 5.05766C48.492 5.14442 47.9089 5.36317 46.7422 5.80067L16.6525 17.0843C12.4514 18.6597 10.3509 19.4474 8.80294 20.8116C7.43544 22.0167 6.38204 23.5368 5.73381 25.2403C5 27.1688 5 29.4121 5 33.8989V55.1251C5 80.1602 35.6406 98.3017 46.2955 103.853Z" stroke="black" stroke-width="10" stroke-linecap="round" stroke-linejoin="round"/>
</svg>
