<?xml version="1.0" encoding="utf-8"?>
<!-- Generator: Adobe Illustrator 26.1.0, SVG Export Plug-In . SVG Version: 6.00 Build 0)  -->
<svg version="1.1" id="Livello_1" xmlns="http://www.w3.org/2000/svg" xmlns:xlink="http://www.w3.org/1999/xlink" x="0px" y="0px"
	 viewBox="0 0 108 103" style="enable-background:new 0 0 108 103;" xml:space="preserve">
<style type="text/css">
	.st0{fill:none;stroke:#080E08;stroke-width:8;stroke-linecap:round;stroke-linejoin:round;stroke-miterlimit:10;}
</style>
<path class="st0" d="M94.3,37.3c-9,0-12.7-6.4-8.2-14.2c2.6-4.5,1-10.3-3.5-12.9L74,5.3c-4-2.3-9.1-0.9-11.4,3l-0.5,0.9
	c-4.5,7.8-11.9,7.8-16.4,0l-0.5-0.9c-2.4-3.9-7.5-5.3-11.4-3l-8.6,4.9c-4.5,2.6-6.1,8.4-3.5,12.9c4.5,7.8,0.8,14.2-8.2,14.2
	c-5.3,0-9.5,4.3-9.5,9.5v8.8c0,5.2,4.2,9.5,9.5,9.5c9,0,12.7,6.4,8.2,14.2c-2.6,4.5-1,10.3,3.5,12.9l8.6,4.9c4,2.3,9.1,0.9,11.4-3
	l0.5-0.9c4.5-7.8,11.9-7.8,16.4,0l0.5,0.9c2.4,3.9,7.5,5.3,11.4,3l8.6-4.9c4.5-2.6,6.1-8.4,3.5-12.9c-4.5-7.8-0.8-14.2,8.2-14.2
	c5.3,0,9.5-4.3,9.5-9.5v-8.8C103.8,41.5,99.5,37.3,94.3,37.3z M53.9,66.2c-8.3,0-15-6.7-15-15c0-8.3,6.7-15,15-15
	c8.3,0,15,6.7,15,15C68.9,59.5,62.2,66.2,53.9,66.2z"/>
</svg>
