<?xml version="1.0" encoding="utf-8"?>
<!-- Generator: Adobe Illustrator 26.1.0, SVG Export Plug-In . SVG Version: 6.00 Build 0)  -->
<svg version="1.1" id="Livello_1" xmlns="http://www.w3.org/2000/svg" xmlns:xlink="http://www.w3.org/1999/xlink" x="0px" y="0px"
	 viewBox="0 0 108 103" style="enable-background:new 0 0 108 103;" xml:space="preserve">
<style type="text/css">
	.st0{fill:#FFFFFF;stroke:#080E08;stroke-width:8;stroke-linecap:round;stroke-linejoin:round;stroke-miterlimit:10;}
</style>
<path class="st0" d="M4,55.6v-8.8c0-5.2,4.2-9.5,9.5-9.5c9,0,12.7-6.4,8.2-14.2c-2.6-4.5-1-10.3,3.5-12.9l8.6-4.9
	c3.9-2.3,9-0.9,11.4,3l0.5,0.9c4.5,7.8,11.9,7.8,16.4,0l0.5-0.9C64.9,4.4,70,3,74,5.3l8.6,4.9c4.5,2.6,6.1,8.4,3.5,12.9
	c-4.5,7.8-0.8,14.2,8.2,14.2c5.2,0,9.5,4.2,9.5,9.5v8.8c0,5.2-4.2,9.5-9.5,9.5c-9,0-12.7,6.4-8.2,14.2c2.6,4.5,1,10.3-3.5,12.9
	L74,97.1c-3.9,2.3-9,0.9-11.4-3l-0.5-0.9c-4.5-7.8-11.9-7.8-16.4,0l-0.5,0.9c-2.3,3.9-7.4,5.3-11.4,3l-8.6-4.9
	c-4.5-2.6-6.1-8.4-3.5-12.9c4.5-7.8,0.8-14.2-8.2-14.2C8.2,65.1,4,60.8,4,55.6z"/>
<circle class="st0" cx="53.9" cy="51.2" r="15"/>
</svg>
