<svg width="100" height="100" viewBox="0 0 100 100" fill="none" xmlns="http://www.w3.org/2000/svg">
<path d="M32.9057 0C51.0291 0 65.8062 14.7745 65.8062 32.8947C65.8062 36.5968 65.0276 40.0897 63.8939 43.4108L95.7817 75.293H95.7868C101.407 80.9123 101.403 90.1425 95.7817 95.7597C92.9715 98.5658 89.2467 100 85.5465 100C81.8463 100 78.1216 98.5658 75.3114 95.7597H75.3062L43.4236 63.8775C40.102 65.0114 36.6058 65.7895 32.9005 65.7895C14.7771 65.7895 -5.63112e-07 51.015 -5.63112e-07 32.8947C-5.63112e-07 27.6292 1.27768 22.6561 3.46484 18.2617C3.74398 17.7018 4.15222 17.2162 4.6559 16.845C5.15959 16.4738 5.74431 16.2276 6.36185 16.1267C6.97939 16.0258 7.61207 16.0731 8.20774 16.2647C8.80341 16.4563 9.34502 16.7867 9.78791 17.2286L27.8678 35.3002C28.9106 36.3429 30.236 36.8421 31.5896 36.8421C32.9433 36.8421 34.2686 36.3429 35.3115 35.3002C37.3987 33.2149 37.3987 29.9481 35.3115 27.8629V27.8577L17.2368 9.78618C16.7948 9.34337 16.4643 8.80187 16.2727 8.2063C16.0811 7.61073 16.0338 6.97816 16.1347 6.36073C16.2356 5.7433 16.4819 5.15869 16.8531 4.65509C17.2244 4.15149 17.7101 3.74332 18.2701 3.46423C22.6663 1.27396 27.6392 0 32.9057 0ZM32.9057 7.89474C30.9332 7.89474 29.0244 8.13556 27.1892 8.57319L40.8943 22.2759C46.0032 27.3801 46.0032 35.7778 40.8943 40.882C38.3418 43.434 34.9526 44.7368 31.5896 44.7368C28.2267 44.7368 24.8375 43.434 22.285 40.882L8.5747 27.1793C8.13718 29.0145 7.89613 30.9226 7.89613 32.8947C7.89613 46.7482 19.0447 57.8947 32.9005 57.8947C36.4772 57.8947 39.8548 57.1354 42.9352 55.7823C43.6632 55.4625 44.4708 55.3699 45.2523 55.5166C46.0338 55.6633 46.7527 56.0426 47.3151 56.6046L80.8942 90.1778C82.1999 91.4797 83.8579 92.1053 85.5465 92.1053C87.2367 92.1053 88.8977 91.4822 90.204 90.1778C92.8048 87.5792 92.8011 83.4765 90.1989 80.8748L56.6198 47.3067C56.0576 46.7445 55.6783 46.0257 55.5315 45.2443C55.3848 44.4629 55.4774 43.6555 55.7972 42.9276C57.1503 39.8485 57.9101 36.4678 57.9101 32.8947C57.9101 19.0413 46.7615 7.89474 32.9057 7.89474Z" fill="#080E08"/>
</svg>
