<?xml version="1.0" encoding="utf-8"?>
<!-- Generator: Adobe Illustrator 26.1.0, SVG Export Plug-In . SVG Version: 6.00 Build 0)  -->
<svg version="1.1" id="Livello_1" xmlns="http://www.w3.org/2000/svg" xmlns:xlink="http://www.w3.org/1999/xlink" x="0px" y="0px"
	 viewBox="0 0 100 100" style="enable-background:new 0 0 100 100;" xml:space="preserve">
<style type="text/css">
	.st0{fill:none;stroke:#000000;stroke-width:8;stroke-linecap:round;stroke-linejoin:round;stroke-miterlimit:10;}
</style>
<g>
	<line class="st0" x1="20.9" y1="8.1" x2="20.8" y2="8"/>
	<path class="st0" d="M93,91.7c-3.5,4.2-10.4,4.7-14.8,0.6C66.5,80.6,45.7,59.8,44.6,58.7c-3.5,1.5-7.4,2.4-11.5,2.4
		c-15.5,0-28-12.5-28-28c0-4.4,1.1-8.6,2.9-12.3l18.8,18.8c0.1,0.1,0.2,0.2,0.2,0.2c3.5,3.3,9.1,3.2,12.6-0.2
		c3.4-3.4,3.5-9,0.2-12.6c-0.1-0.1-0.1-0.2-0.2-0.2L20.9,8.1c3.7-1.9,7.9-2.9,12.3-2.9c15.5,0,28,12.5,28,28c0,4.1-0.9,8-2.5,11.5
		l33.5,33.5C95.9,82.1,96,88,93,91.7z"/>
</g>
</svg>
