<?xml version="1.0" encoding="utf-8"?>
<!-- Generator: Adobe Illustrator 26.1.0, SVG Export Plug-In . SVG Version: 6.00 Build 0)  -->
<svg version="1.1" id="Livello_1" xmlns="http://www.w3.org/2000/svg" xmlns:xlink="http://www.w3.org/1999/xlink" x="0px" y="0px"
	 viewBox="0 0 100 100" style="enable-background:new 0 0 100 100;" xml:space="preserve">
<style type="text/css">
	.st0{fill:none;stroke:#000000;stroke-width:8;stroke-linecap:round;stroke-linejoin:round;stroke-miterlimit:10;}
</style>
<g>
	<path class="st0" d="M8,20.8l18.7,18.7c3.5,3.5,9.3,3.5,12.8,0c3.5-3.5,3.5-9.3,0-12.8L20.8,8"/>
	<path class="st0" d="M92.2,78.2L58.7,44.7c1.6-3.5,2.5-7.4,2.5-11.5c0-15.5-12.5-28-28-28c-4.4,0-8.6,1-12.3,2.9l18.7,18.7
		c3.5,3.5,3.5,9.3,0,12.8c-3.5,3.5-9.3,3.5-12.8,0L8,20.8c-1.8,3.7-2.9,7.9-2.9,12.3c0,15.5,12.5,28,28,28c4.1,0,8-0.9,11.5-2.4
		c1.1,1.1,21.9,21.9,33.6,33.6c4.4,4.1,11.3,3.6,14.8-0.6C96,88,95.9,82.1,92.2,78.2z"/>
</g>
</svg>
