<svg width="91" height="100" viewBox="0 0 91 100" fill="none" xmlns="http://www.w3.org/2000/svg">
<path fill-rule="evenodd" clip-rule="evenodd" d="M77.6991 1.56213e-05C75.6856 -0.000216937 73.84 -0.000402764 72.3386 0.201458C70.6851 0.423736 68.9377 0.946759 67.5005 2.38406C66.0628 3.82136 65.54 5.56894 65.3177 7.22234C65.1158 8.72378 65.1163 10.5695 65.1163 12.5826V73.4642C65.1163 75.4772 65.1158 77.3228 65.3177 78.8242C65.54 80.4776 66.0628 82.2251 67.5005 83.6623C68.9377 85.1 70.6851 85.6227 72.3386 85.8451C73.84 86.0469 75.6856 86.0469 77.6991 86.0465H78.1154C80.1284 86.0469 81.974 86.0469 83.4754 85.8451C85.1289 85.6227 86.8763 85.1 88.3135 83.6623C89.7512 82.2251 90.274 80.4776 90.4963 78.8242C90.6982 77.3228 90.6982 75.4772 90.6977 73.4642V12.5826C90.6982 10.5695 90.6982 8.72378 90.4963 7.22234C90.274 5.56894 89.7512 3.82136 88.3135 2.38406C86.8763 0.946759 85.1289 0.423736 83.4754 0.201458C81.974 -0.000402764 80.1284 -0.000216937 78.1154 1.56213e-05H77.6991ZM72.4451 7.31103L72.4335 7.31741L72.4275 7.32876C72.4228 7.33773 72.4149 7.35317 72.4056 7.37662C72.3637 7.47792 72.2926 7.70285 72.2321 8.15196C72.1005 9.13206 72.093 10.4995 72.093 12.7908V73.2558C72.093 75.5469 72.1005 76.9144 72.2321 77.8944C72.2926 78.3437 72.3637 78.5688 72.4056 78.6697C72.4149 78.6935 72.4228 78.7088 72.4275 78.7176L72.4335 78.7293L72.4451 78.7353L72.46 78.7428C72.4684 78.7469 72.4796 78.7521 72.493 78.7572C72.5944 78.799 72.8191 78.8702 73.2684 78.9307C74.2484 79.0623 75.6158 79.0697 77.907 79.0697C80.1982 79.0697 81.5656 79.0623 82.5456 78.9307C82.9949 78.8702 83.22 78.799 83.3209 78.7572C83.3447 78.7479 83.36 78.7404 83.3689 78.7353L83.3805 78.7293L83.3865 78.7176C83.3916 78.7088 83.3991 78.6935 83.4084 78.6697C83.4503 78.5688 83.5214 78.3437 83.5819 77.8944C83.7135 76.9144 83.7209 75.5469 83.7209 73.2558V12.7908C83.7209 10.4995 83.7135 9.13206 83.5819 8.15196C83.5214 7.70285 83.4503 7.47792 83.4084 7.37662C83.3991 7.35317 83.3916 7.33773 83.3865 7.32876L83.3805 7.31741L83.3689 7.31103C83.36 7.30634 83.3447 7.2988 83.3209 7.28917C83.22 7.2475 82.9949 7.17634 82.5456 7.11596C81.5656 6.9842 80.1982 6.9768 77.907 6.9768C75.6158 6.9768 74.2484 6.9842 73.2684 7.11596C72.8191 7.17634 72.5944 7.2475 72.493 7.28917C72.4693 7.2988 72.454 7.30634 72.4451 7.31103Z" fill="#080E08"/>
<path fill-rule="evenodd" clip-rule="evenodd" d="M45.1409 13.9534H45.5572C47.5702 13.9532 49.4158 13.953 50.9172 14.1548C52.5707 14.3771 54.3181 14.9001 55.7553 16.3374C57.193 17.7747 57.7158 19.5223 57.9381 21.1757C58.14 22.6771 58.14 24.5228 58.1395 26.5359V73.464C58.14 75.4771 58.14 77.3227 57.9381 78.824C57.7158 80.4775 57.193 82.225 55.7553 83.6622C54.3181 85.0999 52.5707 85.6226 50.9172 85.845C49.4158 86.0468 47.5702 86.0468 45.5572 86.0464H45.1409C43.1279 86.0468 41.2819 86.0468 39.7805 85.845C38.127 85.6226 36.3795 85.0999 34.9422 83.6622C33.5049 82.225 32.9819 80.4775 32.7596 78.824C32.5577 77.3227 32.5579 75.4771 32.5581 73.464V26.536C32.5579 24.5229 32.5577 22.6771 32.7596 21.1757C32.9819 19.5223 33.5049 17.7747 34.9422 16.3374C36.3795 14.9001 38.127 14.3771 39.7805 14.1548C41.2819 13.953 43.1274 13.9532 45.1409 13.9534ZM39.8753 21.2708L39.887 21.2644L39.8763 78.7292L39.8693 78.7175C39.8646 78.7087 39.8567 78.6933 39.8474 78.6696C39.8056 78.5687 39.7344 78.3436 39.6739 77.8943C39.5423 76.9143 39.5349 75.5468 39.5349 73.2557V26.7441C39.5349 24.4529 39.5423 23.0854 39.6739 22.1053C39.7344 21.6562 39.8056 21.4313 39.8474 21.33C39.8567 21.3065 39.8646 21.2911 39.8693 21.2821L39.8753 21.2708ZM39.8763 78.7292L39.887 21.2644L39.9046 21.2557L39.9349 21.2425C40.0363 21.2009 40.2609 21.1297 40.7102 21.0693C41.6902 20.9376 43.0577 20.9302 45.3488 20.9302C47.64 20.9302 49.0074 20.9376 49.9874 21.0693C50.4367 21.1297 50.6618 21.2009 50.7628 21.2425C50.7865 21.2522 50.8019 21.2597 50.8107 21.2644L50.8223 21.2708L50.8284 21.2821C50.8335 21.2911 50.8409 21.3065 50.8502 21.33C50.8921 21.4313 50.9632 21.6562 51.0237 22.1053C51.1553 23.0854 51.1628 24.4529 51.1628 26.7441V73.2557C51.1628 75.5468 51.1553 76.9143 51.0237 77.8943C50.9632 78.3436 50.8921 78.5687 50.8502 78.6696C50.8409 78.6933 50.8335 78.7087 50.8284 78.7175L50.8223 78.7292L50.8107 78.7352C50.8051 78.7385 50.7963 78.7426 50.7842 78.7482C50.7781 78.751 50.7712 78.7538 50.7628 78.7571C50.6618 78.7989 50.4367 78.8701 49.9874 78.9306C49.0074 79.0622 47.64 79.0696 45.3488 79.0696C43.0577 79.0696 41.6902 79.0622 40.7102 78.9306C40.2609 78.8701 40.0363 78.7989 39.9349 78.7571C39.9112 78.7478 39.8958 78.7403 39.887 78.7352L39.8763 78.7292Z" fill="#080E08"/>
<path fill-rule="evenodd" clip-rule="evenodd" d="M12.5826 32.5581C10.5695 32.5579 8.72378 32.5577 7.22234 32.7596C5.56894 32.9818 3.82136 33.5049 2.38406 34.9422C0.946759 36.3795 0.423736 38.127 0.201457 39.7804C-0.000403319 41.2818 -0.000216935 43.1274 1.56232e-05 45.1409V73.4641C-0.000216935 75.4772 -0.000403319 77.3227 0.201457 78.8241C0.423736 80.4776 0.946759 82.2251 2.38406 83.6623C3.82136 85.0999 5.56894 85.6227 7.22234 85.8451C8.72378 86.0469 10.5695 86.0469 12.5826 86.0465H12.9988C15.012 86.0469 16.8577 86.0469 18.3591 85.8451C20.0126 85.6227 21.7601 85.0999 23.1974 83.6623C24.6347 82.2251 25.1577 80.4776 25.3801 78.8241C25.5819 77.3227 25.5817 75.4772 25.5814 73.4641V45.1409C25.5817 43.1274 25.5819 41.2818 25.3801 39.7804C25.1577 38.127 24.6347 36.3795 23.1974 34.9422C21.7601 33.5049 20.0126 32.9818 18.3591 32.7596C16.8577 32.5577 15.012 32.5579 12.9989 32.5581H12.5826ZM7.32876 39.8691L7.31741 39.8755L7.31104 39.8869C7.30634 39.8958 7.2988 39.9113 7.28917 39.9347C7.2475 40.036 7.17634 40.261 7.11597 40.7102C6.9842 41.6902 6.9768 43.0576 6.9768 45.3488V73.2558C6.9768 75.5469 6.9842 76.9144 7.11597 77.8944C7.17634 78.3437 7.2475 78.5688 7.28917 78.6697C7.2988 78.6934 7.30634 78.7088 7.31104 78.7176L7.31555 78.726L7.32876 78.7353C7.33773 78.7404 7.35317 78.7479 7.37662 78.7572C7.47792 78.799 7.70285 78.8702 8.15196 78.9307C9.13206 79.0623 10.4995 79.0697 12.7908 79.0697C15.0819 79.0697 16.4494 79.0623 17.4295 78.9307C17.8786 78.8702 18.1035 78.799 18.2048 78.7572C18.2283 78.7479 18.2437 78.7404 18.2528 78.7353L18.2641 78.7293L18.2705 78.7176L18.2808 78.6967L18.2923 78.6697C18.334 78.5688 18.4051 78.3437 18.4655 77.8944C18.5973 76.9144 18.6047 75.5469 18.6047 73.2558V45.3488C18.6047 43.0576 18.5973 41.6902 18.4655 40.7102C18.4051 40.261 18.334 40.036 18.2923 39.9347C18.2827 39.9113 18.2752 39.8958 18.2705 39.8869L18.2641 39.8755L18.2528 39.8691C18.2437 39.8644 18.2283 39.8569 18.2048 39.8473C18.1035 39.8056 17.8786 39.7344 17.4295 39.6741C16.4494 39.5423 15.0819 39.5349 12.7908 39.5349C10.4995 39.5349 9.13206 39.5423 8.15196 39.6741C7.70285 39.7344 7.47792 39.8056 7.37662 39.8473C7.35317 39.8569 7.33773 39.8644 7.32876 39.8691Z" fill="#080E08"/>
<path d="M3.48839 93.0232C1.56178 93.0232 1.52588e-05 94.5851 1.52588e-05 96.5116C1.52588e-05 98.4381 1.56178 99.9999 3.48839 99.9999H87.2092C89.1357 99.9999 90.6976 98.4381 90.6976 96.5116C90.6976 94.5851 89.1357 93.0232 87.2092 93.0232H3.48839Z" fill="#080E08"/>
</svg>
