<svg width="108" height="103" viewBox="0 0 108 103" fill="none" xmlns="http://www.w3.org/2000/svg">
<path d="M53.975 66.1637C62.2553 66.1637 68.9675 59.4516 68.9675 51.1712C68.9675 42.8909 62.2553 36.1787 53.975 36.1787C45.6946 36.1787 38.9825 42.8909 38.9825 51.1712C38.9825 59.4516 45.6946 66.1637 53.975 66.1637Z" stroke="#080E08" stroke-width="8" stroke-miterlimit="10" stroke-linecap="round" stroke-linejoin="round"/>
<path d="M4 55.5685V46.7729C4 41.5755 8.24788 37.2779 13.4953 37.2779C22.5407 37.2779 26.2389 30.8811 21.6912 23.035C19.0925 18.5372 20.6417 12.6902 25.1894 10.0915L33.8351 5.14393C37.7831 2.79511 42.8806 4.19441 45.2294 8.14244L45.7791 9.09196C50.2769 16.938 57.6732 16.938 62.2209 9.09196L62.7706 8.14244C65.1194 4.19441 70.2169 2.79511 74.1649 5.14393L82.8106 10.0915C87.3583 12.6902 88.9075 18.5372 86.3088 23.035C81.7611 30.8811 85.4593 37.2779 94.5048 37.2779C99.7022 37.2779 104 41.5255 104 46.7729V55.5685C104 60.7659 99.7521 65.0638 94.5048 65.0638C85.4593 65.0638 81.7611 71.4606 86.3088 79.3067C88.9075 83.8544 87.3583 89.6515 82.8106 92.2502L74.1649 97.1977C70.2169 99.5465 65.1194 98.1472 62.7706 94.1992L62.2209 93.2497C57.7231 85.4036 50.3268 85.4036 45.7791 93.2497L45.2294 94.1992C42.8806 98.1472 37.7831 99.5465 33.8351 97.1977L25.1894 92.2502C20.6417 89.6515 19.0925 83.8044 21.6912 79.3067C26.2389 71.4606 22.5407 65.0638 13.4953 65.0638C8.24788 65.0638 4 60.7659 4 55.5685Z" stroke="#080E08" stroke-width="8" stroke-miterlimit="10" stroke-linecap="round" stroke-linejoin="round"/>
</svg>
